<svg data-v-fde0c5aa="" xmlns="http://www.w3.org/2000/svg" viewBox="0 0 300 300" class="iconAbove"><!----><defs data-v-fde0c5aa=""><!----></defs><rect data-v-fde0c5aa="" fill="#689D46" x="0" y="0" width="300px" height="300px" class="logo-background-square"></rect><defs data-v-fde0c5aa=""><!----></defs><g data-v-fde0c5aa="" id="b7ae6396-49c7-498f-aebd-a991e3ac8da2" fill="#EBC416" transform="matrix(2.6036453247070312,0,0,2.6036453247070312,18.75025029058135,167.8393763175815)"><path d="M5.87 13.75L5.87 13.75Q4.33 13.75 3.10 13.10L3.10 13.10L3.10 13.10Q1.88 12.45 1.18 11.28L1.18 11.28L1.18 11.28Q0.48 10.12 0.48 8.65L0.48 8.65L0.48 8.65Q0.48 7.18 1.18 6.02L1.18 6.02L1.18 6.02Q1.88 4.86 3.10 4.21L3.10 4.21L3.10 4.21Q4.33 3.56 5.87 3.56L5.87 3.56L5.87 3.56Q7.21 3.56 8.29 4.03L8.29 4.03L8.29 4.03Q9.37 4.51 10.08 5.40L10.08 5.40L8.32 7.00L8.32 7.00Q7.36 5.85 6.01 5.85L6.01 5.85L6.01 5.85Q5.21 5.85 4.58 6.20L4.58 6.20L4.58 6.20Q3.96 6.55 3.62 7.19L3.62 7.19L3.62 7.19Q3.28 7.83 3.28 8.65L3.28 8.65L3.28 8.65Q3.28 9.48 3.62 10.11L3.62 10.11L3.62 10.11Q3.96 10.75 4.58 11.10L4.58 11.10L4.58 11.10Q5.21 11.45 6.01 11.45L6.01 11.45L6.01 11.45Q7.36 11.45 8.32 10.30L8.32 10.30L10.08 11.90L10.08 11.90Q9.37 12.80 8.29 13.27L8.29 13.27L8.29 13.27Q7.21 13.75 5.87 13.75L5.87 13.75ZM16.51 5.96L19.17 5.96L19.17 13.55L16.63 13.55L16.63 12.74L16.63 12.74Q16.21 13.20 15.62 13.44L15.62 13.44L15.62 13.44Q15.04 13.68 14.38 13.68L14.38 13.68L14.38 13.68Q12.91 13.68 12.03 12.81L12.03 12.81L12.03 12.81Q11.16 11.94 11.16 10.21L11.16 10.21L11.16 5.96L13.82 5.96L13.82 9.77L13.82 9.77Q13.82 10.63 14.14 11.02L14.14 11.02L14.14 11.02Q14.46 11.41 15.08 11.41L15.08 11.41L15.08 11.41Q15.71 11.41 16.11 10.97L16.11 10.97L16.11 10.97Q16.51 10.53 16.51 9.62L16.51 9.62L16.51 5.96ZM25.65 5.84L25.65 5.84Q26.68 5.84 27.53 6.31L27.53 6.31L27.53 6.31Q28.38 6.79 28.88 7.68L28.88 7.68L28.88 7.68Q29.37 8.57 29.37 9.74L29.37 9.74L29.37 9.74Q29.37 10.92 28.88 11.82L28.88 11.82L28.88 11.82Q28.38 12.71 27.53 13.20L27.53 13.20L27.53 13.20Q26.68 13.68 25.65 13.68L25.65 13.68L25.65 13.68Q24.15 13.68 23.41 12.80L23.41 12.80L23.41 13.55L20.87 13.55L20.87 3.16L23.53 3.16L23.53 6.62L23.53 6.62Q24.30 5.84 25.65 5.84L25.65 5.84ZM25.09 11.56L25.09 11.56Q25.79 11.56 26.24 11.08L26.24 11.08L26.24 11.08Q26.68 10.60 26.68 9.74L26.68 9.74L26.68 9.74Q26.68 8.90 26.24 8.43L26.24 8.43L26.24 8.43Q25.79 7.95 25.09 7.95L25.09 7.95L25.09 7.95Q24.39 7.95 23.94 8.43L23.94 8.43L23.94 8.43Q23.49 8.90 23.49 9.74L23.49 9.74L23.49 9.74Q23.49 10.60 23.94 11.08L23.94 11.08L23.94 11.08Q24.39 11.56 25.09 11.56L25.09 11.56ZM34.41 13.68L34.41 13.68Q33.19 13.68 32.21 13.17L32.21 13.17L32.21 13.17Q31.23 12.67 30.68 11.77L30.68 11.77L30.68 11.77Q30.13 10.88 30.13 9.74L30.13 9.74L30.13 9.74Q30.13 8.62 30.68 7.73L30.68 7.73L30.68 7.73Q31.23 6.83 32.21 6.33L32.21 6.33L32.21 6.33Q33.18 5.84 34.41 5.84L34.41 5.84L34.41 5.84Q35.64 5.84 36.62 6.33L36.62 6.33L36.62 6.33Q37.60 6.83 38.15 7.72L38.15 7.72L38.15 7.72Q38.70 8.61 38.70 9.74L38.70 9.74L38.70 9.74Q38.70 10.88 38.15 11.77L38.15 11.77L38.15 11.77Q37.60 12.67 36.62 13.17L36.62 13.17L36.62 13.17Q35.64 13.68 34.41 13.68L34.41 13.68ZM34.41 11.56L34.41 11.56Q35.11 11.56 35.56 11.08L35.56 11.08L35.56 11.08Q36.01 10.60 36.01 9.74L36.01 9.74L36.01 9.74Q36.01 8.90 35.56 8.43L35.56 8.43L35.56 8.43Q35.11 7.95 34.41 7.95L34.41 7.95L34.41 7.95Q33.71 7.95 33.26 8.43L33.26 8.43L33.26 8.43Q32.82 8.90 32.82 9.74L32.82 9.74L32.82 9.74Q32.82 10.60 33.26 11.08L33.26 11.08L33.26 11.08Q33.71 11.56 34.41 11.56L34.41 11.56ZM46.87 11.41L52.00 11.41L52.00 13.55L44.13 13.55L44.13 3.75L51.81 3.75L51.81 5.89L46.87 5.89L46.87 7.55L51.23 7.55L51.23 9.62L46.87 9.62L46.87 11.41ZM56.17 13.68L56.17 13.68Q55.22 13.68 54.29 13.46L54.29 13.46L54.29 13.46Q53.37 13.24 52.81 12.89L52.81 12.89L53.61 11.07L53.61 11.07Q54.12 11.40 54.84 11.58L54.84 11.58L54.84 11.58Q55.55 11.77 56.25 11.77L56.25 11.77L56.25 11.77Q56.90 11.77 57.17 11.64L57.17 11.64L57.17 11.64Q57.44 11.51 57.44 11.26L57.44 11.26L57.44 11.26Q57.44 11.00 57.11 10.90L57.11 10.90L57.11 10.90Q56.78 10.79 56.07 10.70L56.07 10.70L56.07 10.70Q55.16 10.58 54.52 10.40L54.52 10.40L54.52 10.40Q53.89 10.22 53.42 9.73L53.42 9.73L53.42 9.73Q52.96 9.24 52.96 8.36L52.96 8.36L52.96 8.36Q52.96 7.63 53.40 7.06L53.40 7.06L53.40 7.06Q53.83 6.50 54.66 6.17L54.66 6.17L54.66 6.17Q55.50 5.84 56.66 5.84L56.66 5.84L56.66 5.84Q57.48 5.84 58.30 6.01L58.30 6.01L58.30 6.01Q59.11 6.17 59.65 6.48L59.65 6.48L58.86 8.29L58.86 8.29Q57.85 7.73 56.67 7.73L56.67 7.73L56.67 7.73Q56.04 7.73 55.75 7.87L55.75 7.87L55.75 7.87Q55.45 8.02 55.45 8.26L55.45 8.26L55.45 8.26Q55.45 8.53 55.78 8.63L55.78 8.63L55.78 8.63Q56.10 8.74 56.84 8.85L56.84 8.85L56.84 8.85Q57.78 8.99 58.39 9.17L58.39 9.17L58.39 9.17Q59.01 9.35 59.47 9.83L59.47 9.83L59.47 9.83Q59.92 10.32 59.92 11.19L59.92 11.19L59.92 11.19Q59.92 11.90 59.49 12.47L59.49 12.47L59.49 12.47Q59.05 13.03 58.21 13.36L58.21 13.36L58.21 13.36Q57.36 13.68 56.17 13.68L56.17 13.68ZM65.84 5.84L65.84 5.84Q66.88 5.84 67.73 6.32L67.73 6.32L67.73 6.32Q68.57 6.80 69.07 7.69L69.07 7.69L69.07 7.69Q69.57 8.58 69.57 9.76L69.57 9.76L69.57 9.76Q69.57 10.93 69.07 11.82L69.07 11.82L69.07 11.82Q68.57 12.71 67.73 13.20L67.73 13.20L67.73 13.20Q66.88 13.68 65.84 13.68L65.84 13.68L65.84 13.68Q64.51 13.68 63.73 12.88L63.73 12.88L63.73 16.27L61.07 16.27L61.07 5.96L63.60 5.96L63.60 6.72L63.60 6.72Q64.34 5.84 65.84 5.84L65.84 5.84ZM65.28 11.56L65.28 11.56Q65.98 11.56 66.43 11.08L66.43 11.08L66.43 11.08Q66.88 10.60 66.88 9.76L66.88 9.76L66.88 9.76Q66.88 8.92 66.43 8.43L66.43 8.43L66.43 8.43Q65.98 7.95 65.28 7.95L65.28 7.95L65.28 7.95Q64.58 7.95 64.13 8.43L64.13 8.43L64.13 8.43Q63.69 8.92 63.69 9.76L63.69 9.76L63.69 9.76Q63.69 10.60 64.13 11.08L64.13 11.08L64.13 11.08Q64.58 11.56 65.28 11.56L65.28 11.56ZM74.61 13.68L74.61 13.68Q73.39 13.68 72.41 13.17L72.41 13.17L72.41 13.17Q71.43 12.67 70.88 11.77L70.88 11.77L70.88 11.77Q70.32 10.88 70.32 9.74L70.32 9.74L70.32 9.74Q70.32 8.62 70.88 7.73L70.88 7.73L70.88 7.73Q71.43 6.83 72.40 6.33L72.40 6.33L72.40 6.33Q73.37 5.84 74.61 5.84L74.61 5.84L74.61 5.84Q75.84 5.84 76.82 6.33L76.82 6.33L76.82 6.33Q77.80 6.83 78.34 7.72L78.34 7.72L78.34 7.72Q78.89 8.61 78.89 9.74L78.89 9.74L78.89 9.74Q78.89 10.88 78.34 11.77L78.34 11.77L78.34 11.77Q77.80 12.67 76.82 13.17L76.82 13.17L76.82 13.17Q75.84 13.68 74.61 13.68L74.61 13.68ZM74.61 11.56L74.61 11.56Q75.31 11.56 75.75 11.08L75.75 11.08L75.75 11.08Q76.20 10.60 76.20 9.74L76.20 9.74L76.20 9.74Q76.20 8.90 75.75 8.43L75.75 8.43L75.75 8.43Q75.31 7.95 74.61 7.95L74.61 7.95L74.61 7.95Q73.91 7.95 73.46 8.43L73.46 8.43L73.46 8.43Q73.01 8.90 73.01 9.74L73.01 9.74L73.01 9.74Q73.01 10.60 73.46 11.08L73.46 11.08L73.46 11.08Q73.91 11.56 74.61 11.56L74.61 11.56ZM82.66 6.87L82.66 6.87Q83.06 6.36 83.71 6.10L83.71 6.10L83.71 6.10Q84.36 5.84 85.20 5.84L85.20 5.84L85.20 8.23L85.20 8.23Q84.84 8.19 84.60 8.19L84.60 8.19L84.60 8.19Q83.75 8.19 83.27 8.65L83.27 8.65L83.27 8.65Q82.78 9.11 82.78 10.07L82.78 10.07L82.78 13.55L80.12 13.55L80.12 5.96L82.66 5.96L82.66 6.87ZM90.90 11.38L91.56 13.24L91.56 13.24Q91.22 13.45 90.74 13.57L90.74 13.57L90.74 13.57Q90.26 13.68 89.71 13.68L89.71 13.68L89.71 13.68Q88.23 13.68 87.43 12.95L87.43 12.95L87.43 12.95Q86.63 12.22 86.63 10.78L86.63 10.78L86.63 8.23L85.53 8.23L85.53 6.24L86.63 6.24L86.63 4.27L89.29 4.27L89.29 6.24L91.03 6.24L91.03 8.23L89.29 8.23L89.29 10.75L89.29 10.75Q89.29 11.16 89.51 11.39L89.51 11.39L89.51 11.39Q89.73 11.62 90.09 11.62L90.09 11.62L90.09 11.62Q90.55 11.62 90.90 11.38L90.90 11.38ZM100.34 9.77L100.34 9.77Q100.34 9.80 100.30 10.43L100.30 10.43L94.78 10.43L94.78 10.43Q94.95 11.02 95.43 11.33L95.43 11.33L95.43 11.33Q95.91 11.65 96.64 11.65L96.64 11.65L96.64 11.65Q97.19 11.65 97.59 11.49L97.59 11.49L97.59 11.49Q97.99 11.34 98.39 10.99L98.39 10.99L99.79 12.45L99.79 12.45Q98.69 13.68 96.56 13.68L96.56 13.68L96.56 13.68Q95.23 13.68 94.22 13.17L94.22 13.17L94.22 13.17Q93.21 12.67 92.66 11.77L92.66 11.77L92.66 11.77Q92.11 10.88 92.11 9.74L92.11 9.74L92.11 9.74Q92.11 8.62 92.64 7.73L92.64 7.73L92.64 7.73Q93.18 6.85 94.14 6.34L94.14 6.34L94.14 6.34Q95.09 5.84 96.28 5.84L96.28 5.84L96.28 5.84Q97.41 5.84 98.34 6.31L98.34 6.31L98.34 6.31Q99.26 6.78 99.80 7.66L99.80 7.66L99.80 7.66Q100.34 8.55 100.34 9.77L100.34 9.77ZM96.29 7.73L96.29 7.73Q95.68 7.73 95.26 8.08L95.26 8.08L95.26 8.08Q94.85 8.43 94.74 9.03L94.74 9.03L97.85 9.03L97.85 9.03Q97.73 8.43 97.32 8.08L97.32 8.08L97.32 8.08Q96.91 7.73 96.29 7.73L96.29 7.73Z"></path></g><defs data-v-fde0c5aa=""><!----></defs><g data-v-fde0c5aa="" id="4c5d8bdd-788f-4686-bcaf-bcee8403af83" stroke="none" fill="#EBC416" transform="matrix(1.6354944705963135,0,0,1.6354944705963135,102.84378883883734,81.41004425829729)"><path clip-rule="evenodd" d="M49.611 16.958c0-1.65-1.227-3.564-2.725-4.254L31.559 5.647c-1.498-.69-3.951-.69-5.45 0l-15.331 7.057c-1.499.69-2.726 2.604-2.726 4.254v18.083c0 1.65 1.227 3.564 2.726 4.255l15.331 7.058c1.499.689 3.952.689 5.45 0l15.33-7.058c1.498-.69 2.725-2.604 2.725-4.255l-.003-18.083zm-5.26 2.518l-11.574 5.327c-.999.459-1.816 1.736-1.816 2.836V39.92c0 1.1-.9 2-2 2h-.262c-1.1 0-2-.9-2-2V27.638c0-1.101-.817-2.376-1.816-2.836l-11.571-5.325a2.006 2.006 0 0 1-.98-2.653l.109-.239a2.005 2.005 0 0 1 2.652-.98l11.921 5.488c.999.46 2.634.46 3.633 0l11.924-5.488a2.005 2.005 0 0 1 2.652.98l.109.239a2.006 2.006 0 0 1-.981 2.652z"></path></g><!----></svg>